<?xml version="1.0" encoding="UTF-8"?>
<svg version="1.1" xmlns="http://www.w3.org/2000/svg" width="588" height="120">
<path d="M0 0 C5.01506786 -1.06774328 9.22832474 -1.47682738 13.87890625 0.984375 C20.39344876 8.15380464 24.75435483 17.15752774 29.1340332 25.73291016 C30.88053808 28.98741581 32.78399785 31.94815098 34.87890625 34.984375 C34.91649048 33.49272827 34.91649048 33.49272827 34.95483398 31.97094727 C35.04875507 28.29388753 35.14901244 24.6170235 35.2512207 20.94018555 C35.29462771 19.346482 35.33629844 17.7527302 35.3762207 16.15893555 C35.43378432 13.87273592 35.49751774 11.58678051 35.5625 9.30078125 C35.57921249 8.58410782 35.59592499 7.86743439 35.61314392 7.12904358 C35.76503454 2.09824671 35.76503454 2.09824671 36.87890625 0.984375 C39.39026729 0.88462468 41.8679404 0.84555317 44.37890625 0.859375 C45.08144531 0.85550781 45.78398437 0.85164063 46.5078125 0.84765625 C51.75229247 0.85776122 51.75229247 0.85776122 52.87890625 1.984375 C52.97842918 4.12637824 53.00690304 6.27170205 53.00830078 8.41601562 C53.0100531 9.08755173 53.01180542 9.75908783 53.01361084 10.45097351 C53.01802855 12.68088328 53.01509167 14.91071436 53.01171875 17.140625 C53.01239181 18.68379736 53.01336186 20.22696961 53.01461792 21.7701416 C53.01609478 25.0083924 53.01394072 28.24661567 53.00927734 31.48486328 C53.00358005 35.64480023 53.00685912 39.80467266 53.01284981 43.96460724 C53.01645574 47.15236908 53.01531669 50.34011551 53.01272202 53.52787781 C53.01205283 55.06214912 53.01288086 56.59642182 53.01520157 58.13069153 C53.01772863 60.27141041 53.01388679 62.41202342 53.00830078 64.55273438 C53.00750519 65.77327515 53.00670959 66.99381592 53.00588989 68.25134277 C52.87890625 70.984375 52.87890625 70.984375 51.87890625 71.984375 C47.86942338 73.34630769 44.05655564 74.01248383 39.86914062 73.04150391 C32.93170214 69.35662797 29.151053 59.05821487 25.73657227 52.34448242 C23.01543242 47.42254159 19.89832875 42.72918178 16.87890625 37.984375 C16.54890625 49.204375 16.21890625 60.424375 15.87890625 71.984375 C10.59890625 71.984375 5.31890625 71.984375 -0.12109375 71.984375 C-1.12109375 70.984375 -1.12109375 70.984375 -1.24134827 68.73814392 C-1.23912766 67.74553055 -1.23690704 66.75291718 -1.23461914 65.73022461 C-1.23454361 64.60913803 -1.23446808 63.48805145 -1.23439026 62.33299255 C-1.22922897 61.1132222 -1.22406769 59.89345184 -1.21875 58.63671875 C-1.21733505 57.39515518 -1.2159201 56.15359161 -1.21446228 54.87440491 C-1.20979966 51.56832009 -1.20080872 48.26230354 -1.1897583 44.95623779 C-1.17954202 41.5847635 -1.1749642 38.21328217 -1.16992188 34.84179688 C-1.1588677 28.22263725 -1.14211111 21.60351007 -1.12109375 14.984375 C-3.76109375 14.984375 -6.40109375 14.984375 -9.12109375 14.984375 C-8.54001743 11.2240765 -7.46909879 8.45402468 -5.55859375 5.171875 C-5.10355469 4.38167969 -4.64851563 3.59148438 -4.1796875 2.77734375 C-3.12109375 0.984375 -3.12109375 0.984375 0 0 Z " fill="#FDFA07" transform="translate(373.12109375,22.015625)"/>
<path d="M0 0 C1.00224609 -0.01611328 2.00449219 -0.03222656 3.03710938 -0.04882812 C4.48633789 -0.04979492 4.48633789 -0.04979492 5.96484375 -0.05078125 C6.84648193 -0.05376221 7.72812012 -0.05674316 8.63647461 -0.05981445 C11.57509906 0.39116696 12.92476902 1.27173456 15.0625 3.3125 C16.3794168 7.26325039 16.24487282 11.05949362 16.265625 15.1796875 C16.27132507 16.05142609 16.27702515 16.92316467 16.28289795 17.82131958 C16.29234183 19.66553536 16.2988795 21.50976797 16.30273438 23.35400391 C16.31243933 26.16989686 16.34346786 28.98505959 16.375 31.80078125 C16.38153043 33.59374567 16.38678075 35.38671531 16.390625 37.1796875 C16.4029718 38.01942108 16.4153186 38.85915466 16.42803955 39.72433472 C16.41026735 44.40718914 16.12114292 47.51572445 13.0625 51.3125 C10.61045018 52.53852491 9.04528317 52.41179239 6.30859375 52.375 C4.90383789 52.36339844 4.90383789 52.36339844 3.47070312 52.3515625 C2.49037109 52.33867188 1.51003906 52.32578125 0.5 52.3125 C-1.43874773 52.2871071 -3.37755854 52.26603458 -5.31640625 52.25 C-6.60913452 52.23259766 -6.60913452 52.23259766 -7.92797852 52.21484375 C-9.93582057 52.08683701 -9.93582057 52.08683701 -10.9375 53.3125 C-9.2875 53.3125 -7.6375 53.3125 -5.9375 53.3125 C-5.9375 54.6325 -5.9375 55.9525 -5.9375 57.3125 C-15.8375 57.6425 -25.7375 57.9725 -35.9375 58.3125 C-33.31106731 63.7751785 -33.31106731 63.7751785 -30.671875 69.23168945 C-30.18460938 70.25588989 -30.18460938 70.25588989 -29.6875 71.30078125 C-29.35234375 71.99727783 -29.0171875 72.69377441 -28.671875 73.41137695 C-27.9375 75.3125 -27.9375 75.3125 -27.9375 78.3125 C-39.1575 78.3125 -50.3775 78.3125 -61.9375 78.3125 C-63.42429725 75.33890551 -63.04862605 72.64950821 -63.03515625 69.3359375 C-63.0337413 68.65069 -63.03232635 67.9654425 -63.03086853 67.25942993 C-63.02526675 65.06874239 -63.01271406 62.8781567 -63 60.6875 C-62.99498522 59.20312648 -62.99042228 57.71875135 -62.98632812 56.234375 C-62.97529677 52.59371685 -62.95803099 48.95311836 -62.9375 45.3125 C-63.71996094 45.32410156 -64.50242187 45.33570313 -65.30859375 45.34765625 C-66.32050781 45.35667969 -67.33242187 45.36570313 -68.375 45.375 C-69.38433594 45.38660156 -70.39367187 45.39820313 -71.43359375 45.41015625 C-73.9375 45.3125 -73.9375 45.3125 -74.9375 44.3125 C-74.9375 42.6625 -74.9375 41.0125 -74.9375 39.3125 C-78.2375 38.9825 -81.5375 38.6525 -84.9375 38.3125 C-85.4325 36.8275 -85.4325 36.8275 -85.9375 35.3125 C-90.3925 35.8075 -90.3925 35.8075 -94.9375 36.3125 C-95.87898531 33.48804408 -96.01061695 32.17078382 -95.81640625 29.30078125 C-95.76806641 28.54345703 -95.71972656 27.78613281 -95.66992188 27.00585938 C-95.61384766 26.22017578 -95.55777344 25.43449219 -95.5 24.625 C-95.42168945 23.42907227 -95.42168945 23.42907227 -95.34179688 22.20898438 C-95.21230978 20.24313478 -95.07559959 18.27776335 -94.9375 16.3125 C-91.9675 16.3125 -88.9975 16.3125 -85.9375 16.3125 C-85.9375 14.6625 -85.9375 13.0125 -85.9375 11.3125 C-74.3875 11.6425 -62.8375 11.9725 -50.9375 12.3125 C-50.6075 11.3225 -50.2775 10.3325 -49.9375 9.3125 C-48.679375 9.27125 -47.42125 9.23 -46.125 9.1875 C-45.41730469 9.16429687 -44.70960937 9.14109375 -43.98046875 9.1171875 C-41.9375 9.3125 -41.9375 9.3125 -38.9375 11.3125 C-35.27973616 11.21624306 -33.9895801 10.35747826 -31.1875 7.9375 C-28.77672008 5.45898837 -28.77672008 5.45898837 -27.9375 2.3125 C-23.27083333 2.3125 -18.60416667 2.3125 -13.9375 2.3125 C-9.47690842 -0.66122772 -5.24663019 -0.01680535 0 0 Z M-14.9375 9.3125 C-15.17384823 11.84622839 -15.28971709 14.26734588 -15.30859375 16.8046875 C-15.31762222 17.54703644 -15.3266507 18.28938538 -15.33595276 19.05422974 C-15.35046964 20.62611856 -15.35934558 22.19806801 -15.36303711 23.77001953 C-15.374923 26.17193915 -15.42407744 28.57128015 -15.47460938 30.97265625 C-15.48407494 32.49998746 -15.49130934 34.02733445 -15.49609375 35.5546875 C-15.51562607 36.27147675 -15.53515839 36.98826599 -15.55528259 37.72677612 C-15.52103945 41.52393474 -15.2505242 42.99785852 -12.52758789 45.73486328 C-8.05342122 48.4601027 -4.58896667 48.49577055 0.5625 48.5 C1.34753906 48.51224609 2.13257812 48.52449219 2.94140625 48.53710938 C4.98313726 48.54236254 7.02442251 48.4347018 9.0625 48.3125 C11.72320205 45.65179795 11.31166545 43.65770322 11.34039307 40.03857422 C11.3363446 39.18021973 11.33229614 38.32186523 11.328125 37.4375 C11.33003845 36.55723145 11.3319519 35.67696289 11.33392334 34.77001953 C11.33528552 32.90722366 11.33158682 31.04441831 11.32324219 29.18164062 C11.31254307 26.32400264 11.32313632 23.46699334 11.3359375 20.609375 C11.33461591 18.80208194 11.33205353 16.99478927 11.328125 15.1875 C11.33217346 14.32914551 11.33622192 13.47079102 11.34039307 12.58642578 C11.51743375 7.97024942 11.51743375 7.97024942 9.0625 4.3125 C6.24807126 4.08605171 3.56396965 3.98824574 0.75 4 C-0.38985352 3.97583008 -0.38985352 3.97583008 -1.55273438 3.95117188 C-7.36271258 3.94612411 -10.73687408 5.11187408 -14.9375 9.3125 Z M-23.9375 6.3125 C-23.9375 19.1825 -23.9375 32.0525 -23.9375 45.3125 C-22.6175 45.3125 -21.2975 45.3125 -19.9375 45.3125 C-19.9375 32.4425 -19.9375 19.5725 -19.9375 6.3125 C-21.2575 6.3125 -22.5775 6.3125 -23.9375 6.3125 Z M-28.9375 11.3125 C-28.9375 14.3125 -28.9375 14.3125 -28.9375 14.3125 Z M-46.9375 13.3125 C-46.9375 15.2925 -46.9375 17.2725 -46.9375 19.3125 C-46.2775 19.3125 -45.6175 19.3125 -44.9375 19.3125 C-44.9375 17.3325 -44.9375 15.3525 -44.9375 13.3125 C-45.5975 13.3125 -46.2575 13.3125 -46.9375 13.3125 Z M-31.9375 14.3125 C-32.5975 14.9725 -33.2575 15.6325 -33.9375 16.3125 C-36.2475 16.6425 -38.5575 16.9725 -40.9375 17.3125 C-40.9375 23.2525 -40.9375 29.1925 -40.9375 35.3125 C-37.56835938 35.99609375 -37.56835938 35.99609375 -34.19921875 36.6796875 C-31.9375 37.3125 -31.9375 37.3125 -28.9375 39.3125 C-27.45480947 31.15770206 -26.49846226 22.05033492 -29.9375 14.3125 C-30.5975 14.3125 -31.2575 14.3125 -31.9375 14.3125 Z M-81.9375 16.3125 C-81.9375 22.2525 -81.9375 28.1925 -81.9375 34.3125 C-80.9475 34.3125 -79.9575 34.3125 -78.9375 34.3125 C-78.9375 28.3725 -78.9375 22.4325 -78.9375 16.3125 C-79.9275 16.3125 -80.9175 16.3125 -81.9375 16.3125 Z M-74.9375 17.3125 C-74.9375 23.2525 -74.9375 29.1925 -74.9375 35.3125 C-67.0175 35.3125 -59.0975 35.3125 -50.9375 35.3125 C-50.9375 29.3725 -50.9375 23.4325 -50.9375 17.3125 C-58.8575 17.3125 -66.7775 17.3125 -74.9375 17.3125 Z M-90.9375 20.3125 C-90.9375 24.2725 -90.9375 28.2325 -90.9375 32.3125 C-89.2875 32.3125 -87.6375 32.3125 -85.9375 32.3125 C-85.9375 28.3525 -85.9375 24.3925 -85.9375 20.3125 C-87.5875 20.3125 -89.2375 20.3125 -90.9375 20.3125 Z M-46.9375 23.3125 C-46.9375 25.2925 -46.9375 27.2725 -46.9375 29.3125 C-46.2775 29.3125 -45.6175 29.3125 -44.9375 29.3125 C-44.9375 27.3325 -44.9375 25.3525 -44.9375 23.3125 C-45.5975 23.3125 -46.2575 23.3125 -46.9375 23.3125 Z M-46.9375 34.3125 C-46.9375 35.9625 -46.9375 37.6125 -46.9375 39.3125 C-46.2775 39.3125 -45.6175 39.3125 -44.9375 39.3125 C-44.9375 37.6625 -44.9375 36.0125 -44.9375 34.3125 C-45.5975 34.3125 -46.2575 34.3125 -46.9375 34.3125 Z M-69.9375 39.3125 C-69.9375 39.9725 -69.9375 40.6325 -69.9375 41.3125 C-63.6675 41.3125 -57.3975 41.3125 -50.9375 41.3125 C-50.9375 40.6525 -50.9375 39.9925 -50.9375 39.3125 C-57.2075 39.3125 -63.4775 39.3125 -69.9375 39.3125 Z M-40.9375 39.3125 C-40.6075 40.9625 -40.2775 42.6125 -39.9375 44.3125 C-41.5875 44.6425 -43.2375 44.9725 -44.9375 45.3125 C-44.9375 47.9525 -44.9375 50.5925 -44.9375 53.3125 C-40.89584861 53.34165731 -36.8542245 53.35935173 -32.8125 53.375 C-31.67039062 53.38337891 -30.52828125 53.39175781 -29.3515625 53.40039062 C-28.24296875 53.40361328 -27.134375 53.40683594 -25.9921875 53.41015625 C-24.46827393 53.41801147 -24.46827393 53.41801147 -22.91357422 53.42602539 C-19.84635274 53.30902309 -16.95116866 52.88026417 -13.9375 52.3125 C-14.2675 50.9925 -14.5975 49.6725 -14.9375 48.3125 C-15.9275 48.8075 -15.9275 48.8075 -16.9375 49.3125 C-16.9375 49.9725 -16.9375 50.6325 -16.9375 51.3125 C-20.35320827 50.88313329 -23.64964525 50.34964442 -26.9375 49.3125 C-28.6875 47 -28.6875 47 -29.9375 44.3125 C-32.55103528 41.46699413 -34.85589597 39.43006566 -38.8125 39 C-39.51375 39.103125 -40.215 39.20625 -40.9375 39.3125 Z M-57.9375 45.3125 C-57.96637236 49.12498426 -57.98425492 52.9374407 -58 56.75 C-58.00837891 57.83861328 -58.01675781 58.92722656 -58.02539062 60.04882812 C-58.02861328 61.08330078 -58.03183594 62.11777344 -58.03515625 63.18359375 C-58.04039307 64.14193115 -58.04562988 65.10026855 -58.05102539 66.08764648 C-58.1880313 68.28535339 -58.1880313 68.28535339 -56.9375 69.3125 C-55.4487814 69.39919432 -53.956055 69.41953494 -52.46484375 69.41015625 C-51.11616211 69.40532227 -51.11616211 69.40532227 -49.74023438 69.40039062 C-48.79470703 69.39201172 -47.84917969 69.38363281 -46.875 69.375 C-45.4509082 69.36823242 -45.4509082 69.36823242 -43.99804688 69.36132812 C-41.64446935 69.3495011 -39.29101523 69.33302025 -36.9375 69.3125 C-38.88671306 63.05507127 -38.88671306 63.05507127 -41.9375 57.3125 C-45.53135054 56.33376462 -45.53135054 56.33376462 -48.9375 56.3125 C-49.2675 52.6825 -49.5975 49.0525 -49.9375 45.3125 C-52.5775 45.3125 -55.2175 45.3125 -57.9375 45.3125 Z M-56.9375 72.3125 C-57.2675 72.9725 -57.5975 73.6325 -57.9375 74.3125 C-57.2775 74.3125 -56.6175 74.3125 -55.9375 74.3125 C-56.2675 73.6525 -56.5975 72.9925 -56.9375 72.3125 Z M-35.9375 72.3125 C-35.9375 72.9725 -35.9375 73.6325 -35.9375 74.3125 C-35.2775 73.9825 -34.6175 73.6525 -33.9375 73.3125 C-34.5975 72.9825 -35.2575 72.6525 -35.9375 72.3125 Z M-46.9375 73.3125 C-46.9375 73.6425 -46.9375 73.9725 -46.9375 74.3125 C-44.9575 74.3125 -42.9775 74.3125 -40.9375 74.3125 C-40.9375 73.9825 -40.9375 73.6525 -40.9375 73.3125 C-42.9175 73.3125 -44.8975 73.3125 -46.9375 73.3125 Z " fill="#F9FDFE" transform="translate(121.9375,18.6875)"/>
<path d="M0 0 C0.33802675 2.54579377 0.4887947 4.86149086 0.51171875 7.4140625 C0.53864555 8.50852188 0.53864555 8.50852188 0.56611633 9.62509155 C0.62035132 11.95833535 0.65415562 14.29137314 0.6875 16.625 C0.72066162 18.20575792 0.7551502 19.78648861 0.79101562 21.3671875 C0.87608467 25.24464326 0.94283178 29.12203655 1 33 C1.45246094 31.78441406 1.90492188 30.56882813 2.37109375 29.31640625 C7.48581399 17.08420609 7.48581399 17.08420609 12.09472656 15.09667969 C17.08311421 14.11944113 21.9759616 14.4404917 27 15 C27.96369538 17.55371997 28.14638104 18.64521405 27.08789062 21.21069336 C26.61544922 21.99581299 26.14300781 22.78093262 25.65625 23.58984375 C25.15222656 24.45673828 24.64820313 25.32363281 24.12890625 26.21679688 C23.04468985 28.02772426 21.95875684 29.83762502 20.87109375 31.64648438 C20.36707031 32.51466797 19.86304688 33.38285156 19.34375 34.27734375 C18.87130859 35.06359131 18.39886719 35.84983887 17.91210938 36.65991211 C16.75551688 39.62724055 17.02613903 40.98898682 18 44 C18.85536904 45.77571355 19.78076729 47.5186868 20.7578125 49.23046875 C21.30050781 50.19791016 21.84320313 51.16535156 22.40234375 52.16210938 C23.55773308 54.19124551 24.71399358 56.21988584 25.87109375 58.24804688 C26.41121094 59.21162109 26.95132813 60.17519531 27.5078125 61.16796875 C28.00941895 62.04735107 28.51102539 62.9267334 29.02783203 63.83276367 C29.34864746 64.54795166 29.66946289 65.26313965 30 66 C29.67 66.66 29.34 67.32 29 68 C23.39 68 17.78 68 12 68 C8.04 60.74 4.08 53.48 0 46 C0.03958469 52.86612807 0.03958469 52.86612807 0.09008789 59.73217773 C0.09258545 60.58239502 0.09508301 61.4326123 0.09765625 62.30859375 C0.10551147 63.62041626 0.10551147 63.62041626 0.11352539 64.95874023 C0 67 0 67 -1 68 C-3.53049402 68.07313567 -6.03304837 68.09247527 -8.5625 68.0625 C-9.27341797 68.05798828 -9.98433594 68.05347656 -10.71679688 68.04882812 C-12.47790013 68.03700864 -14.23896036 68.01907263 -16 68 C-17.27469407 65.45061185 -17.12016184 63.66959002 -17.11352539 60.81591797 C-17.11344986 59.73494843 -17.11337433 58.65397888 -17.11329651 57.54025269 C-17.10813522 56.36939117 -17.10297394 55.19852966 -17.09765625 53.9921875 C-17.0962413 52.79643097 -17.09482635 51.60067444 -17.09336853 50.36868286 C-17.08775663 46.53743013 -17.07520208 42.70623516 -17.0625 38.875 C-17.05748653 36.28255293 -17.05292336 33.69010494 -17.04882812 31.09765625 C-17.03778333 24.73175102 -17.02103359 18.36587963 -17 12 C-18.98 12 -20.96 12 -23 12 C-24 10 -24 10 -23.3125 7.43359375 C-21.83501055 4.0608723 -20.56121574 1.66740214 -18 -1 C-11.97564321 -2.68241973 -5.39297468 -3.59531645 0 0 Z M-1 35 C0 38 0 38 0 38 Z " fill="#FBF90A" transform="translate(334,26)"/>
<path d="M0 0 C13.53 0 27.06 0 41 0 C40 9 40 9 37 16 C30.4 16 23.8 16 17 16 C17 19.96 17 23.92 17 28 C23.27 28 29.54 28 36 28 C36.020625 30.454375 36.04125 32.90875 36.0625 35.4375 C36.071604 36.21150146 36.08070801 36.98550293 36.09008789 37.78295898 C36.09724913 39.52221717 36.05024702 41.26145304 36 43 C35 44 35 44 33.23413086 44.11352539 C32.48526611 44.10828857 31.73640137 44.10305176 30.96484375 44.09765625 C30.15595703 44.09443359 29.34707031 44.09121094 28.51367188 44.08789062 C27.66353516 44.07951172 26.81339844 44.07113281 25.9375 44.0625 C25.08349609 44.05798828 24.22949219 44.05347656 23.34960938 44.04882812 C21.23304337 44.03700373 19.11651315 44.01906769 17 44 C17.00785522 45.17357056 17.00785522 45.17357056 17.01586914 46.37084961 C17.03657106 49.89305833 17.04963838 53.4152543 17.0625 56.9375 C17.07087891 58.16919922 17.07925781 59.40089844 17.08789062 60.66992188 C17.09272461 62.4246582 17.09272461 62.4246582 17.09765625 64.21484375 C17.10551147 65.84087524 17.10551147 65.84087524 17.11352539 67.49975586 C17 70 17 70 16 71 C13.30345146 71.07319621 10.63308542 71.09242537 7.9375 71.0625 C7.17888672 71.05798828 6.42027344 71.05347656 5.63867188 71.04882812 C3.75908129 71.0370068 1.87953101 71.01907078 0 71 C-0.58631589 54.10599386 -1.09965779 37.2178654 -1.125 20.3125 C-1.12951172 19.07419434 -1.13402344 17.83588867 -1.13867188 16.56005859 C-1.13673828 15.40199707 -1.13480469 14.24393555 -1.1328125 13.05078125 C-1.13168457 12.04700439 -1.13055664 11.04322754 -1.12939453 10.0090332 C-0.9851478 6.65461632 -0.47482459 3.32377216 0 0 Z " fill="#FBF90A" transform="translate(166,23)"/>
<path d="M0 0 C5.53345661 4.33996597 7.8805458 10.19716293 9 17 C9.21336226 21.01595197 9.18631978 24.98377356 9 29 C3.21354356 30.25406138 -2.48868116 30.11186913 -8.375 30.0625 C-9.39722656 30.05798828 -10.41945313 30.05347656 -11.47265625 30.04882812 C-13.98183194 30.037103 -16.4908849 30.02069176 -19 30 C-19 31.65 -19 33.3 -19 35 C-17.23050905 35.10815225 -15.45912513 35.18566083 -13.6875 35.25 C-12.70136719 35.29640625 -11.71523438 35.3428125 -10.69921875 35.390625 C-7.85596306 35.26903428 -7.85596306 35.26903428 -6.14453125 32.984375 C-5.76683594 32.32953125 -5.38914062 31.6746875 -5 31 C-0.81474495 31.59789358 3.08852973 32.36264035 7 34 C7.33 34.99 7.66 35.98 8 37 C5.26652915 42.17976773 1.24531232 46.42682792 -4 49 C-10.95194668 51.07908686 -17.14826373 51.60954799 -24 49 C-30.012421 45.71018473 -33.91541864 41.57444891 -36 35 C-38.21614965 25.47055651 -37.93067586 14.36560781 -32.67578125 5.85546875 C-24.73738818 -4.04147799 -11.04107568 -5.82203614 0 0 Z M-19 13 C-19.33 14.32 -19.66 15.64 -20 17 C-14.06 16.505 -14.06 16.505 -8 16 C-9.48925419 11.88036585 -9.48925419 11.88036585 -12.375 11.125 C-15.33935049 10.98384045 -16.63135607 11.22351705 -19 13 Z " fill="#FAF70E" transform="translate(472,44)"/>
<path d="M0 0 C-0.42594588 1.44096586 -0.86626633 2.87768712 -1.3125 4.3125 C-1.55613281 5.11300781 -1.79976562 5.91351563 -2.05078125 6.73828125 C-3.12625266 9.30082425 -3.63934532 10.5049187 -6 12 C-8.67108574 12.05546517 -11.05292823 11.96547069 -13.6875 11.6875 C-14.7403418 11.5956543 -14.7403418 11.5956543 -15.81445312 11.50195312 C-17.5442967 11.34897376 -19.27238497 11.17637398 -21 11 C-20.15669324 13.26860558 -20.15669324 13.26860558 -17.5234375 13.859375 C-15.96496094 14.30023438 -15.96496094 14.30023438 -14.375 14.75 C-7.60601584 16.92574491 -2.85048768 19.45323195 0.5 25.875 C1.37457808 31.34111299 0.88722143 35.35230306 -1.75 40.25 C-6.87248346 46.51081312 -12.08103452 48.76996814 -20 50 C-26.93681912 50.14685669 -32.8466009 49.21654953 -39 46 C-38.74500159 44.20601116 -38.47046186 42.41479125 -38.1875 40.625 C-38.03667969 39.62726563 -37.88585937 38.62953125 -37.73046875 37.6015625 C-37 35 -37 35 -34 33 C-30.65231207 33.34917214 -27.42815335 34.0268999 -24.12890625 34.6875 C-20.87205979 35.01277805 -19.62118881 34.88378581 -17 33 C-16.67 32.34 -16.34 31.68 -16 31 C-16.71285156 30.82984375 -17.42570312 30.6596875 -18.16015625 30.484375 C-32.39657059 26.8821598 -32.39657059 26.8821598 -37 21 C-38.72237197 15.8328841 -38.65561622 10.89400242 -36.875 5.75 C-33.15576379 0.29512023 -29.38876546 -2.46517117 -22.98828125 -3.71875 C-15.38897193 -4.79370142 -6.91887162 -3.45943581 0 0 Z " fill="#FBF80C" transform="translate(525,45)"/>
<path d="M0 0 C1.27875 0.00257812 2.5575 0.00515625 3.875 0.0078125 C5.15375 0.00523438 6.4325 0.00265625 7.75 0 C10.875 0.1328125 10.875 0.1328125 11.875 1.1328125 C11.94758946 3.31920703 11.95873783 5.50781639 11.9375 7.6953125 C11.92847656 8.89285156 11.91945313 10.09039062 11.91015625 11.32421875 C11.89855469 12.25105469 11.88695312 13.17789063 11.875 14.1328125 C15.505 14.1328125 19.135 14.1328125 22.875 14.1328125 C23.37 15.1228125 23.37 15.1228125 23.875 16.1328125 C22.87109375 18.69921875 22.87109375 18.69921875 21.3125 21.6953125 C20.81621094 22.68660156 20.31992187 23.67789063 19.80859375 24.69921875 C17.875 27.1328125 17.875 27.1328125 14.66015625 27.97265625 C13.74105469 28.02550781 12.82195313 28.07835938 11.875 28.1328125 C12.01316959 31.77897921 12.16181534 35.42464324 12.3125 39.0703125 C12.35181641 40.11123047 12.39113281 41.15214844 12.43164062 42.22460938 C12.47353516 43.21396484 12.51542969 44.20332031 12.55859375 45.22265625 C12.59525146 46.13909912 12.63190918 47.05554199 12.66967773 47.99975586 C12.64503864 50.1148853 12.64503864 50.1148853 13.875 51.1328125 C15.39428038 51.20461214 16.91667482 51.21673257 18.4375 51.1953125 C19.26378906 51.18628906 20.09007812 51.17726562 20.94140625 51.16796875 C21.57949219 51.15636719 22.21757813 51.14476562 22.875 51.1328125 C24.4662689 56.0060735 25.08692221 59.94071846 24.875 65.1328125 C16.8080886 67.82178297 10.58365351 68.10875895 2.859375 64.33984375 C-0.41150636 62.35027221 -2.50582116 60.00449726 -3.71264648 56.35644531 C-4.23225229 53.55445023 -4.23662722 50.90476585 -4.22265625 48.0546875 C-4.21943359 46.89453125 -4.21621094 45.734375 -4.21289062 44.5390625 C-4.20451172 43.3325 -4.19613281 42.1259375 -4.1875 40.8828125 C-4.18298828 39.66078125 -4.17847656 38.43875 -4.17382812 37.1796875 C-4.16204815 34.16401304 -4.14559853 31.14843752 -4.125 28.1328125 C-4.929375 28.1534375 -5.73375 28.1740625 -6.5625 28.1953125 C-9.125 28.1328125 -9.125 28.1328125 -10.125 27.1328125 C-10.19758946 24.94641797 -10.20873783 22.75780861 -10.1875 20.5703125 C-10.17847656 19.37277344 -10.16945313 18.17523438 -10.16015625 16.94140625 C-10.14855469 16.01457031 -10.13695312 15.08773437 -10.125 14.1328125 C-8.145 14.1328125 -6.165 14.1328125 -4.125 14.1328125 C-4.13660156 13.20597656 -4.14820313 12.27914062 -4.16015625 11.32421875 C-4.16917969 10.12667969 -4.17820312 8.92914063 -4.1875 7.6953125 C-4.19910156 6.50035156 -4.21070313 5.30539063 -4.22265625 4.07421875 C-4.08795671 0.01706849 -4.08333716 0.17354183 0 0 Z " fill="#F9F811" transform="translate(539.125,27.8671875)"/>
<path d="M0 0 C2.4140625 2.08984375 2.4140625 2.08984375 4 4 C2.04055471 7.74501489 0.0338902 11.0338771 -3 14 C-6.02275233 14.68544102 -8.37993606 14.59686712 -11.44921875 14.25390625 C-13.96037156 14.00394464 -15.6189525 14.23605736 -18 15 C-19.02345486 18.37902556 -19.1338035 21.47860013 -19.125 25 C-19.12757813 26.03125 -19.13015625 27.0625 -19.1328125 28.125 C-19.01863671 30.59657009 -18.71350656 32.6442958 -18 35 C-11.49385874 36.83997207 -5.27342817 36.57371412 1 34 C2.98 37.63 4.96 41.26 7 45 C1.78485657 50.04130531 -4.50812089 51.63243378 -11.5625 52.375 C-18.40348653 51.62871056 -24.688364 49.466603 -30 45 C-34.81096211 38.55930818 -36.21513613 33.34177344 -36.3125 25.3125 C-36.34150391 24.53455078 -36.37050781 23.75660156 -36.40039062 22.95507812 C-36.47510765 16.06386923 -34.54323257 11.1373939 -30.2109375 5.79296875 C-21.09663171 -2.17720078 -11.65806747 -3.50916641 0 0 Z " fill="#FCF908" transform="translate(306,43)"/>
<path d="M0 0 C1.39456452 0.00667256 2.78911118 0.01863093 4.18359375 0.03515625 C4.89451172 0.03966797 5.60542969 0.04417969 6.33789062 0.04882812 C8.09899388 0.06064761 9.86005411 0.07858362 11.62109375 0.09765625 C12.54346985 3.25488836 12.77168432 6.13309064 12.82641602 9.41699219 C12.84636124 10.47778992 12.86630646 11.53858765 12.88685608 12.63153076 C12.90356857 13.77019592 12.92028107 14.90886108 12.9375 16.08203125 C12.9582811 17.25276184 12.97906219 18.42349243 13.00047302 19.62969971 C13.06585003 23.36895894 13.12479866 27.1082883 13.18359375 30.84765625 C13.22679022 33.38281975 13.27040487 35.91797616 13.31445312 38.453125 C13.42151934 44.66789465 13.52330785 50.88273403 13.62109375 57.09765625 C16.26109375 57.42765625 18.90109375 57.75765625 21.62109375 58.09765625 C21.95109375 62.38765625 22.28109375 66.67765625 22.62109375 71.09765625 C15.18024645 73.57793868 9.27479851 73.8592639 2.12109375 70.41015625 C-2.30280201 66.31805267 -4.22004669 61.39814402 -4.50588989 55.45942688 C-4.50668549 54.45872665 -4.50748108 53.45802643 -4.50830078 52.42700195 C-4.51145294 51.28934891 -4.5146051 50.15169586 -4.51785278 48.97956848 C-4.51582855 47.75654526 -4.51380432 46.53352203 -4.51171875 45.2734375 C-4.51267548 44.0162944 -4.5136322 42.75915131 -4.51461792 41.46391296 C-4.51529826 38.80850778 -4.51395614 36.15319474 -4.50927734 33.49780273 C-4.50356288 30.08789819 -4.50687316 26.67807206 -4.51284981 23.26817036 C-4.51732081 20.0199232 -4.51419643 16.77168567 -4.51171875 13.5234375 C-4.51374298 12.29434158 -4.51576721 11.06524567 -4.51785278 9.79890442 C-4.51470062 8.67070786 -4.51154846 7.54251129 -4.50830078 6.38012695 C-4.50750519 5.38181351 -4.50670959 4.38350006 -4.50588989 3.35493469 C-4.30003446 -0.30437938 -3.79059082 0.10955465 0 0 Z " fill="#FDFA06" transform="translate(218.37890625,21.90234375)"/>
<path d="M0 0 C1.8871875 -0.00386719 1.8871875 -0.00386719 3.8125 -0.0078125 C7 0.125 7 0.125 9 1.125 C9.02526739 8.36986551 9.0428318 15.61471974 9.05493164 22.85961914 C9.05997356 25.32642033 9.06680691 27.79321852 9.07543945 30.26000977 C9.08751125 33.79704529 9.09322956 37.33404145 9.09765625 40.87109375 C9.10281754 41.98149521 9.10797882 43.09189667 9.11329651 44.23594666 C9.11340981 45.76742088 9.11340981 45.76742088 9.11352539 47.32983398 C9.115746 48.23362289 9.11796661 49.1374118 9.12025452 50.06858826 C9 52.125 9 52.125 8 53.125 C5.46950598 53.19813567 2.96695163 53.21747527 0.4375 53.1875 C-0.27341797 53.18298828 -0.98433594 53.17847656 -1.71679688 53.17382812 C-3.47790013 53.16200864 -5.23896036 53.14407263 -7 53.125 C-7.58513366 43.60612927 -8.10009087 34.10165879 -8.125 24.5625 C-8.12951172 23.84328369 -8.13402344 23.12406738 -8.13867188 22.38305664 C-8.12408172 17.37316345 -8.12408172 17.37316345 -7 15.125 C-9.31 15.125 -11.62 15.125 -14 15.125 C-15 12.125 -15 12.125 -13.85546875 9.4609375 C-13.30503906 8.48382813 -12.75460938 7.50671875 -12.1875 6.5 C-11.64480469 5.51773438 -11.10210937 4.53546875 -10.54296875 3.5234375 C-7.77388384 -0.78091221 -4.84086033 -0.0099198 0 0 Z " fill="#FDFA05" transform="translate(254,40.875)"/>
<path d="M0 0 C4.95 0 9.9 0 15 0 C15 13.2 15 26.4 15 40 C13.515 40.495 13.515 40.495 12 41 C12.33 41.598125 12.66 42.19625 13 42.8125 C14 45 14 45 14 48 C14.495 48.495 14.495 48.495 15 49 C15.625 51 15.625 51 16 53 C15.67 53.33 15.34 53.66 15 54 C14.76518307 56.18292774 14.58636677 58.37203174 14.4375 60.5625 C14.35371094 61.76003906 14.26992188 62.95757812 14.18359375 64.19140625 C14.09271484 65.58166016 14.09271484 65.58166016 14 67 C10.04 67 6.08 67 2 67 C2 48.52 2 30.04 2 11 C0.35 10.67 -1.3 10.34 -3 10 C-3.33 9.34 -3.66 8.68 -4 8 C-2.35 7.67 -0.7 7.34 1 7 C0.67 4.69 0.34 2.38 0 0 Z " fill="#FDFA06" transform="translate(317,26)"/>
<path d="M0 0 C1.39456452 0.00667256 2.78911118 0.01863093 4.18359375 0.03515625 C4.89451172 0.03966797 5.60542969 0.04417969 6.33789062 0.04882812 C8.09899388 0.06064761 9.86005411 0.07858362 11.62109375 0.09765625 C12.54346985 3.25488836 12.77168432 6.13309064 12.82641602 9.41699219 C12.84636124 10.47778992 12.86630646 11.53858765 12.88685608 12.63153076 C12.90356857 13.77019592 12.92028107 14.90886108 12.9375 16.08203125 C12.9582811 17.25276184 12.97906219 18.42349243 13.00047302 19.62969971 C13.06585003 23.36895894 13.12479866 27.1082883 13.18359375 30.84765625 C13.22679022 33.38281975 13.27040487 35.91797616 13.31445312 38.453125 C13.42151934 44.66789465 13.52330785 50.88273403 13.62109375 57.09765625 C16.26109375 57.42765625 18.90109375 57.75765625 21.62109375 58.09765625 C21.95109375 62.38765625 22.28109375 66.67765625 22.62109375 71.09765625 C16.12035108 73.26457047 10.00252855 74.16689984 3.578125 71.1328125 C1.93359375 70.03515625 1.93359375 70.03515625 -0.37890625 68.09765625 C2.30894287 66.75373169 3.59557634 67.68969112 6.3359375 68.55078125 C11.00387214 69.66789381 15.84240919 69.79947889 20.62109375 70.09765625 C20.62109375 66.46765625 20.62109375 62.83765625 20.62109375 59.09765625 C17.65109375 59.09765625 14.68109375 59.09765625 11.62109375 59.09765625 C10.60327847 56.0442104 10.50012134 53.99481833 10.50756836 50.80004883 C10.50764389 49.71915482 10.50771942 48.6382608 10.50779724 47.52461243 C10.51295853 46.3589122 10.51811981 45.19321198 10.5234375 43.9921875 C10.52485245 42.79784592 10.5262674 41.60350433 10.52772522 40.37297058 C10.53333025 36.55200717 10.54588364 32.731102 10.55859375 28.91015625 C10.5636081 26.32226647 10.56817112 23.73437577 10.57226562 21.14648438 C10.58330133 14.7968525 10.60056938 8.44726426 10.62109375 2.09765625 C6.33109375 2.09765625 2.04109375 2.09765625 -2.37890625 2.09765625 C-2.27051418 9.40871901 -2.15832189 16.71970016 -2.03956699 24.03060246 C-1.98456481 27.42588836 -1.93118317 30.82118315 -1.8815918 34.21655273 C-1.82441597 38.12622316 -1.76003547 42.03575945 -1.6953125 45.9453125 C-1.67860001 47.15598892 -1.66188751 48.36666534 -1.64466858 49.61402893 C-1.54703905 55.19739774 -1.36537738 60.59658772 -0.37890625 66.09765625 C-2.37890625 65.09765625 -2.37890625 65.09765625 -3.48950195 62.35498047 C-4.96288264 56.67215956 -4.64405268 50.80811652 -4.609375 44.98046875 C-4.60891678 43.7275705 -4.60845856 42.47467224 -4.60798645 41.18380737 C-4.60420514 37.87321063 -4.59123529 34.56280929 -4.57452393 31.2522583 C-4.56367216 28.53907266 -4.56405619 25.82593744 -4.56466198 23.11273384 C-4.56432573 19.88113064 -4.55549943 16.64955894 -4.546875 13.41796875 C-4.54576218 12.198284 -4.54464935 10.97859924 -4.54350281 9.72195435 C-4.53712296 8.60344086 -4.5307431 7.48492737 -4.52416992 6.33251953 C-4.52035812 5.3432547 -4.51654633 4.35398987 -4.51261902 3.33474731 C-4.29490006 -0.3078153 -3.77602099 0.10913355 0 0 Z " fill="#E9E62C" transform="translate(218.37890625,21.90234375)"/>
<path d="M0 0 C2 3 2 3 2 5 C3.76949095 5.10815225 5.54087487 5.18566083 7.3125 5.25 C8.29863281 5.29640625 9.28476562 5.3428125 10.30078125 5.390625 C13.14403694 5.26903428 13.14403694 5.26903428 14.85546875 2.984375 C15.23316406 2.32953125 15.61085938 1.6746875 16 1 C20.18525505 1.59789358 24.08852973 2.36264035 28 4 C28.495 5.485 28.495 5.485 29 7 C26.26652915 12.17976773 22.24531232 16.42682792 17 19 C10.14751747 21.04934057 3.76518944 21.67633868 -3 19 C-3.66 18.34 -4.32 17.68 -5 17 C-0.86563989 15.81875425 1.11788435 16.30779574 5 18 C6.32 18 7.64 18 9 18 C8.34 17.34 7.68 16.68 7 16 C6.34 16 5.68 16 5 16 C6.38589981 12.90837736 7.49183541 11.50816459 10 9 C5.545 8.01 5.545 8.01 1 7 C0.67 4.69 0.34 2.38 0 0 Z " fill="#F7F514" transform="translate(451,74)"/>
<path d="M0 0 C13.53 0 27.06 0 41 0 C40 9 40 9 37 16 C30.4 16 23.8 16 17 16 C17 19.96 17 23.92 17 28 C23.27 28 29.54 28 36 28 C36.020625 30.454375 36.04125 32.90875 36.0625 35.4375 C36.071604 36.21150146 36.08070801 36.98550293 36.09008789 37.78295898 C36.09724913 39.52221717 36.05024702 41.26145304 36 43 C35 44 35 44 33.23413086 44.11352539 C32.48526611 44.10828857 31.73640137 44.10305176 30.96484375 44.09765625 C30.15595703 44.09443359 29.34707031 44.09121094 28.51367188 44.08789062 C27.66353516 44.07951172 26.81339844 44.07113281 25.9375 44.0625 C25.08349609 44.05798828 24.22949219 44.05347656 23.34960938 44.04882812 C21.23304337 44.03700373 19.11651315 44.01906769 17 44 C17 43.34 17 42.68 17 42 C22.94 42 28.88 42 35 42 C35 37.71 35 33.42 35 29 C28.73 29 22.46 29 16 29 C13.86920309 24.73840618 14.95497683 18.59236298 15 14 C22.26 14 29.52 14 37 14 C37 11.03 37 8.06 37 5 C37.66 4.01 38.32 3.02 39 2 C26.46 2 13.92 2 1 2 C1.07906928 11.40892907 1.07906928 11.40892907 1.18017578 20.81762695 C1.18766846 22.57272583 1.18766846 22.57272583 1.1953125 24.36328125 C1.20578613 25.56251221 1.21625977 26.76174316 1.22705078 27.99731445 C1 31 1 31 -1 34 C-1.02918634 29.64584756 -1.04686145 25.29172052 -1.0625 20.9375 C-1.07087891 19.70837891 -1.07925781 18.47925781 -1.08789062 17.21289062 C-1.09111328 16.01728516 -1.09433594 14.82167969 -1.09765625 13.58984375 C-1.10289307 12.49534912 -1.10812988 11.40085449 -1.11352539 10.27319336 C-0.99413185 6.83080809 -0.48711952 3.40983662 0 0 Z " fill="#DDE34A" transform="translate(166,23)"/>
<path d="M0 0 C0.26727014 2.48340903 0.34866334 4.71472068 0.29296875 7.1953125 C0.28872391 7.90275604 0.28447906 8.61019958 0.28010559 9.33908081 C0.26329547 11.60143905 0.22564128 13.86291048 0.1875 16.125 C0.17245607 17.65753923 0.15876716 19.1900924 0.14648438 20.72265625 C0.11338462 24.48211318 0.06158825 28.24090618 0 32 C-0.33 32 -0.66 32 -1 32 C-1.33 21.44 -1.66 10.88 -2 0 C-6.95 0 -11.9 0 -17 0 C-17 1.65 -17 3.3 -17 5 C-16.34 5.33 -15.68 5.66 -15 6 C-15 6.66 -15 7.32 -15 8 C-16.65 8.33 -18.3 8.66 -20 9 C-17.525 9.99 -17.525 9.99 -15 11 C-15 29.48 -15 47.96 -15 67 C-11.04 67 -7.08 67 -3 67 C-3 62.71 -3 58.42 -3 54 C-2.01 53.505 -2.01 53.505 -1 53 C-0.80609271 55.31197155 -0.62003633 57.6246029 -0.4375 59.9375 C-0.33308594 61.22527344 -0.22867187 62.51304688 -0.12109375 63.83984375 C-0.08113281 64.88269531 -0.04117187 65.92554687 0 67 C-1 68 -1 68 -4.37890625 68.09765625 C-5.77347077 68.09098369 -7.16801743 68.07902532 -8.5625 68.0625 C-9.27341797 68.05798828 -9.98433594 68.05347656 -10.71679688 68.04882812 C-12.47790013 68.03700864 -14.23896036 68.01907263 -16 68 C-17.27469407 65.45061185 -17.12016184 63.66959002 -17.11352539 60.81591797 C-17.11344986 59.73494843 -17.11337433 58.65397888 -17.11329651 57.54025269 C-17.10813522 56.36939117 -17.10297394 55.19852966 -17.09765625 53.9921875 C-17.0962413 52.79643097 -17.09482635 51.60067444 -17.09336853 50.36868286 C-17.08775663 46.53743013 -17.07520208 42.70623516 -17.0625 38.875 C-17.05748653 36.28255293 -17.05292336 33.69010494 -17.04882812 31.09765625 C-17.03778333 24.73175102 -17.02103359 18.36587963 -17 12 C-18.98 12 -20.96 12 -23 12 C-24 10 -24 10 -23.3125 7.43359375 C-21.83501055 4.0608723 -20.56121574 1.66740214 -18 -1 C-11.97564321 -2.68241973 -5.39297468 -3.59531645 0 0 Z " fill="#E5E747" transform="translate(334,26)"/>
<path d="M0 0 C1.1653125 -0.01675781 2.330625 -0.03351562 3.53125 -0.05078125 C5.00078125 0.12904297 5.00078125 0.12904297 6.5 0.3125 C8.78062828 3.73344242 8.71925007 4.99437222 8.625 9 C8.60695313 9.99386719 8.58890625 10.98773438 8.5703125 12.01171875 C8.54710937 12.77097656 8.52390625 13.53023437 8.5 14.3125 C5.04839849 16.42691933 2.31967844 16.55368936 -1.6875 16.5 C-2.75355469 16.49355469 -3.81960937 16.48710938 -4.91796875 16.48046875 C-7.5 16.3125 -7.5 16.3125 -8.5 15.3125 C-8.62537741 13.16942104 -8.67574364 11.02171114 -8.6875 8.875 C-8.70167969 7.70066406 -8.71585938 6.52632812 -8.73046875 5.31640625 C-8.28372318 -0.50643006 -5.02890429 0.01668884 0 0 Z " fill="#FDF907" transform="translate(254.5,23.6875)"/>
<path d="M0 0 C0.70253906 0.00386719 1.40507812 0.00773437 2.12890625 0.01171875 C2.83144531 0.00785156 3.53398437 0.00398438 4.2578125 0 C9.50229247 0.01010497 9.50229247 0.01010497 10.62890625 1.13671875 C10.72842918 3.27872199 10.75690304 5.4240458 10.75830078 7.56835938 C10.7600531 8.23989548 10.76180542 8.91143158 10.76361084 9.60331726 C10.76802855 11.83322703 10.76509167 14.06305811 10.76171875 16.29296875 C10.76239181 17.83614111 10.76336186 19.37931336 10.76461792 20.92248535 C10.76609478 24.16073615 10.76394072 27.39895942 10.75927734 30.63720703 C10.75358005 34.79714398 10.75685912 38.95701641 10.76284981 43.11695099 C10.76645574 46.30471283 10.76531669 49.49245926 10.76272202 52.68022156 C10.76205283 54.21449287 10.76288086 55.74876557 10.76520157 57.28303528 C10.76772863 59.42375416 10.76388679 61.56436717 10.75830078 63.70507812 C10.75750519 64.9256189 10.75670959 66.14615967 10.75588989 67.40368652 C10.62890625 70.13671875 10.62890625 70.13671875 9.62890625 71.13671875 C7.2757707 71.20943616 4.92056957 71.22042743 2.56640625 71.19921875 C0.63087891 71.18568359 0.63087891 71.18568359 -1.34375 71.171875 C-2.34277344 71.16027344 -3.34179688 71.14867188 -4.37109375 71.13671875 C-4.37109375 70.80671875 -4.37109375 70.47671875 -4.37109375 70.13671875 C-0.08109375 70.13671875 4.20890625 70.13671875 8.62890625 70.13671875 C8.62890625 47.69671875 8.62890625 25.25671875 8.62890625 2.13671875 C4.33890625 2.13671875 0.04890625 2.13671875 -4.37109375 2.13671875 C-4.70109375 13.68671875 -5.03109375 25.23671875 -5.37109375 37.13671875 C-5.70109375 37.13671875 -6.03109375 37.13671875 -6.37109375 37.13671875 C-6.39574385 32.02807979 -6.41392982 26.91947516 -6.42602539 21.81079102 C-6.43106579 20.07152707 -6.43789805 18.33226739 -6.4465332 16.59301758 C-6.45861167 14.09845938 -6.46432483 11.60395702 -6.46875 9.109375 C-6.47391129 8.32708023 -6.47907257 7.54478546 -6.48439026 6.73878479 C-6.48458601 4.87104761 -6.43309069 3.00342671 -6.37109375 1.13671875 C-4.61549433 -0.61888067 -2.33526933 0.00449956 0 0 Z " fill="#E4E22F" transform="translate(415.37109375,22.86328125)"/>
<path d="M0 0 C0.33 0 0.66 0 1 0 C1.02526739 7.24486551 1.0428318 14.48971974 1.05493164 21.73461914 C1.05997356 24.20142033 1.06680691 26.66821852 1.07543945 29.13500977 C1.08751125 32.67204529 1.09322956 36.20904145 1.09765625 39.74609375 C1.10281754 40.85649521 1.10797882 41.96689667 1.11329651 43.11094666 C1.11340981 44.64242088 1.11340981 44.64242088 1.11352539 46.20483398 C1.115746 47.10862289 1.11796661 48.0124118 1.12025452 48.94358826 C1 51 1 51 0 52 C-2.53049402 52.07313567 -5.03304837 52.09247527 -7.5625 52.0625 C-8.27341797 52.05798828 -8.98433594 52.05347656 -9.71679688 52.04882812 C-11.47790013 52.03700864 -13.23896036 52.01907263 -15 52 C-15.58513366 42.48112927 -16.10009087 32.97665879 -16.125 23.4375 C-16.12951172 22.71828369 -16.13402344 21.99906738 -16.13867188 21.25805664 C-16.12408172 16.24816345 -16.12408172 16.24816345 -15 14 C-17.31 14 -19.62 14 -22 14 C-22.33 13.01 -22.66 12.02 -23 11 C-22.01 10.01 -21.02 9.02 -20 8 C-20.33 9.32 -20.66 10.64 -21 12 C-18.69 12 -16.38 12 -14 12 C-14 24.87 -14 37.74 -14 51 C-9.71 51 -5.42 51 -1 51 C-1.00523682 49.49058838 -1.01047363 47.98117676 -1.01586914 46.42602539 C-1.03391205 40.8482319 -1.0454294 35.270441 -1.05493164 29.69262695 C-1.05997349 27.27432828 -1.06680678 24.85603267 -1.07543945 22.43774414 C-1.08751157 18.97020717 -1.09322963 15.50271034 -1.09765625 12.03515625 C-1.10281754 10.94662857 -1.10797882 9.85810089 -1.11329651 8.73658752 C-1.11340981 7.23514442 -1.11340981 7.23514442 -1.11352539 5.70336914 C-1.115746 4.81734512 -1.11796661 3.93132111 -1.12025452 3.01844788 C-1 1 -1 1 0 0 Z " fill="#EEEF47" transform="translate(262,42)"/>
<path d="M0 0 C0.33 1.32 0.66 2.64 1 4 C3.31 4.66 5.62 5.32 8 6 C8 24.81 8 43.62 8 63 C12.62 63 17.24 63 22 63 C22 51.12 22 39.24 22 27 C22.33 27 22.66 27 23 27 C23 39.21 23 51.42 23 64 C17.72 64 12.44 64 7 64 C6 63 6 63 5.87974548 60.75376892 C5.88196609 59.76115555 5.88418671 58.76854218 5.88647461 57.74584961 C5.88655014 56.62476303 5.88662567 55.50367645 5.88670349 54.34861755 C5.89186478 53.1288472 5.89702606 51.90907684 5.90234375 50.65234375 C5.9037587 49.41078018 5.90517365 48.16921661 5.90663147 46.89002991 C5.91129409 43.58394509 5.92028503 40.27792854 5.93133545 36.97186279 C5.94155173 33.6003885 5.94612955 30.22890717 5.95117188 26.85742188 C5.96222605 20.23826225 5.97898264 13.61913507 6 7 C3.36 7 0.72 7 -2 7 C-1.125 2.25 -1.125 2.25 0 0 Z " fill="#E3E137" transform="translate(366,30)"/>
<path d="M0 0 C0.33 0.66 0.66 1.32 1 2 C0.54173828 3.32451172 0.54173828 3.32451172 0.07421875 4.67578125 C-1.11809 8.36543486 -1.23309 11.32063927 -1.1875 15.1875 C-1.17783203 17.00314453 -1.17783203 17.00314453 -1.16796875 18.85546875 C-1.13785492 22.02839312 -1.13785492 22.02839312 0 25 C0.66 25 1.32 25 2 25 C2.103125 26.093125 2.20625 27.18625 2.3125 28.3125 C2.72205298 31.84904021 2.72205298 31.84904021 4.25 33.875 C6.45167104 35.29035995 8.42468508 35.65198447 11 36 C11 36.66 11 37.32 11 38 C11.78246094 37.98839844 12.56492187 37.97679687 13.37109375 37.96484375 C14.38300781 37.95582031 15.39492188 37.94679687 16.4375 37.9375 C17.44683594 37.92589844 18.45617187 37.91429687 19.49609375 37.90234375 C22 38 22 38 23 39 C24.51928038 39.07179964 26.04167482 39.08392007 27.5625 39.0625 C28.38878906 39.05347656 29.21507812 39.04445312 30.06640625 39.03515625 C30.70449219 39.02355469 31.34257812 39.01195312 32 39 C32 38.34 32 37.68 32 37 C33.32 37 34.64 37 36 37 C36 34.69 36 32.38 36 30 C35.34 30 34.68 30 34 30 C34 28.68 34 27.36 34 26 C33.01 25.67 32.02 25.34 31 25 C32.32 25 33.64 25 35 25 C37.475 29.95 37.475 29.95 40 35 C34.78485657 40.04130531 28.49187911 41.63243378 21.4375 42.375 C14.59651347 41.62871056 8.311636 39.466603 3 35 C-1.90632824 28.43163645 -3.19848072 23.24382697 -3.25 15.1875 C-3.270625 14.39279297 -3.29125 13.59808594 -3.3125 12.77929688 C-3.34583376 7.74173225 -2.70063372 4.41340405 0 0 Z " fill="#EDEE35" transform="translate(273,53)"/>
<path d="M0 0 C0.33 0.66 0.66 1.32 1 2 C2.98 2 4.96 2 7 2 C7 4.97 7 7.94 7 11 C0.86090397 12.43680971 -3.20377279 11.32637691 -9 9 C-8.67 8.34 -8.34 7.68 -8 7 C-8.39938767 4.90178785 -8.39938767 4.90178785 -9 3 C-3.375 0.875 -3.375 0.875 0 2 C0 1.34 0 0.68 0 0 Z " fill="#FCF905" transform="translate(514,43)"/>
<path d="M0 0 C0.33 0 0.66 0 1 0 C1.33 17.16 1.66 34.32 2 52 C4.64 52.33 7.28 52.66 10 53 C10.33 57.29 10.66 61.58 11 66 C4.49925733 68.16691422 -1.6185652 69.06924359 -8.04296875 66.03515625 C-9.6875 64.9375 -9.6875 64.9375 -12 63 C-9.31215088 61.65607544 -8.02551741 62.59203487 -5.28515625 63.453125 C-0.61722161 64.57023756 4.22131544 64.70182264 9 65 C9 61.37 9 57.74 9 54 C6.03 54 3.06 54 0 54 C0 36.18 0 18.36 0 0 Z " fill="#E8E754" transform="translate(230,27)"/>
<path d="M0 0 C0.33 0 0.66 0 1 0 C1.02505615 0.90355225 1.0501123 1.80710449 1.07592773 2.73803711 C1.17087317 6.0796428 1.27011621 9.42106252 1.37231445 12.76245117 C1.4157163 14.2106424 1.45738744 15.65888654 1.49731445 17.10717773 C1.55489062 19.18489559 1.61862028 21.26234573 1.68359375 23.33984375 C1.72025146 24.59144287 1.75690918 25.84304199 1.79467773 27.13256836 C1.67803906 29.89630504 1.67803906 29.89630504 3 31 C6.465 24.565 6.465 24.565 10 18 C10.33 19.32 10.66 20.64 11 22 C11.33 22.33 11.66 22.66 12 23 C11.40138258 25.35171131 10.73075648 27.6859378 10 30 C9.34 30.33 8.68 30.66 8 31 C7.34 30.67 6.68 30.34 6 30 C6 30.99 6 31.98 6 33 C5.01 33.495 5.01 33.495 4 34 C3.855625 34.66 3.71125 35.32 3.5625 36 C3.376875 36.66 3.19125 37.32 3 38 C1.515 38.495 1.515 38.495 0 39 C0 26.13 0 13.26 0 0 Z M1 33 C2 36 2 36 2 36 Z " fill="#ECEA1B" transform="translate(332,28)"/>
<path d="M0 0 C1.1653125 -0.01675781 2.330625 -0.03351562 3.53125 -0.05078125 C5.00078125 0.12904297 5.00078125 0.12904297 6.5 0.3125 C8.5 3.3125 8.5 3.3125 8.125 6 C7.815625 7.1446875 7.815625 7.1446875 7.5 8.3125 C7.17 8.3125 6.84 8.3125 6.5 8.3125 C6.5 6.6625 6.5 5.0125 6.5 3.3125 C5.72914063 3.32410156 4.95828125 3.33570313 4.1640625 3.34765625 C2.65972656 3.36119141 2.65972656 3.36119141 1.125 3.375 C0.12726563 3.38660156 -0.87046875 3.39820313 -1.8984375 3.41015625 C-4.5 3.3125 -4.5 3.3125 -6.5 2.3125 C-6.5 6.2725 -6.5 10.2325 -6.5 14.3125 C-1.88 14.3125 2.74 14.3125 7.5 14.3125 C7.17 14.9725 6.84 15.6325 6.5 16.3125 C4.18756208 16.33935412 1.8750373 16.35882841 -0.4375 16.375 C-1.72527344 16.38660156 -3.01304687 16.39820312 -4.33984375 16.41015625 C-7.5 16.3125 -7.5 16.3125 -8.5 15.3125 C-8.62537741 13.16942104 -8.67574364 11.02171114 -8.6875 8.875 C-8.70167969 7.70066406 -8.71585938 6.52632812 -8.73046875 5.31640625 C-8.28372318 -0.50643006 -5.02890429 0.01668884 0 0 Z " fill="#E0E235" transform="translate(254.5,23.6875)"/>
<path d="M0 0 C1.258125 -0.04125 2.51625 -0.0825 3.8125 -0.125 C4.52019531 -0.14820312 5.22789062 -0.17140625 5.95703125 -0.1953125 C8 0 8 0 11 2 C9.68 2 8.36 2 7 2 C7.99 2.66 8.98 3.32 10 4 C9.67 5.65 9.34 7.3 9 9 C7.68 9.33 6.36 9.66 5 10 C5 9.34 5 8.68 5 8 C4.01 8.33 3.02 8.66 2 9 C1.34 8.34 0.68 7.68 0 7 C0 6.01 0 5.02 0 4 C-0.66 3.67 -1.32 3.34 -2 3 C-1.34 3 -0.68 3 0 3 C0 2.01 0 1.02 0 0 Z " fill="#FCFA06" transform="translate(489,81)"/>
<path d="M0 0 C0.33 0.66 0.66 1.32 1 2 C0.67 2.66 0.34 3.32 0 4 C2.31 4 4.62 4 7 4 C7.33 17.2 7.66 30.4 8 44 C7.34 44 6.68 44 6 44 C5.41486634 34.48112927 4.89990913 24.97665879 4.875 15.4375 C4.87048828 14.71828369 4.86597656 13.99906738 4.86132812 13.25805664 C4.87591828 8.24816345 4.87591828 8.24816345 6 6 C3.69 6 1.38 6 -1 6 C-1.33 5.01 -1.66 4.02 -2 3 C-1.34 2.01 -0.68 1.02 0 0 Z " fill="#E7E334" transform="translate(241,50)"/>
<path d="M0 0 C0.66 0 1.32 0 2 0 C2.33 8.25 2.66 16.5 3 25 C3.66 25.33 4.32 25.66 5 26 C5.33 26.66 5.66 27.32 6 28 C5.34 28.33 4.68 28.66 4 29 C4.99 30.98 5.98 32.96 7 35 C3.91580513 34.04283607 3.03544036 33.059976 1.375 30.25 C-0.91275169 24.61431901 -0.31457922 18.53522346 -0.1875 12.5625 C-0.16719727 10.74975586 -0.16719727 10.74975586 -0.14648438 8.90039062 C-0.11129946 5.93312918 -0.06206696 2.96680063 0 0 Z " fill="#EEF03B" transform="translate(535,56)"/>
<path d="M0 0 C-0.99 2.97 -1.98 5.94 -3 9 C-3.33 9 -3.66 9 -4 9 C-4.33 6.36 -4.66 3.72 -5 1 C-7.475 0.505 -7.475 0.505 -10 0 C-10 -0.66 -10 -1.32 -10 -2 C-20.88873235 -1.59384122 -20.88873235 -1.59384122 -31 2 C-31.99 2 -32.98 2 -34 2 C-24.86602656 -6.5631001 -10.68732445 -5.34366222 0 0 Z " fill="#EBEE44" transform="translate(525,45)"/>
<path d="M0 0 C2.421875 2.0859375 2.421875 2.0859375 4 4 C3.01 4.99 2.02 5.98 1 7 C0.34 6.01 -0.32 5.02 -1 4 C-4.30313134 1.75858945 -7.07803398 1.75487712 -11 2 C-12.11375 2.2784375 -12.11375 2.2784375 -13.25 2.5625 C-15 3 -15 3 -17 2 C-19.3329866 1.95977609 -21.66706666 1.95679753 -24 2 C-17.8990033 -4.1009967 -7.52557747 -2.13162909 0 0 Z " fill="#EEF02D" transform="translate(306,43)"/>
<path d="M0 0 C0.66 0 1.32 0 2 0 C2.66 1.32 3.32 2.64 4 4 C4.99 4 5.98 4 7 4 C7.33 5.32 7.66 6.64 8 8 C9.77119803 7.85866501 11.54195287 7.71176792 13.3125 7.5625 C14.29863281 7.48128906 15.28476562 7.40007812 16.30078125 7.31640625 C19.09375599 7.08187441 19.09375599 7.08187441 22 6 C24.6875 6.4375 24.6875 6.4375 27 7 C20.13029636 10.8642083 12.76313369 10.43177141 5.3125 8.5625 C3.53657976 8.05928499 1.76361324 7.54478105 0 7 C-0.93423645 3.98968256 -1.04449911 3.13349732 0 0 Z " fill="#F2F12D" transform="translate(487,85)"/>
<path d="M0 0 C5.65507506 -1.07400019 11.48870271 -2.11963537 17 0 C22.00862461 4.56990357 25.86172175 11.58516524 28 18 C27.67 18.66 27.34 19.32 27 20 C25 18.25 25 18.25 23 16 C23 14.68 23 13.36 23 12 C22.34 12 21.68 12 21 12 C19 9 19 9 19 6 C18.34 6 17.68 6 17 6 C17 4.68 17 3.36 17 2 C11.06 2.33 5.12 2.66 -1 3 C-0.67 2.01 -0.34 1.02 0 0 Z " fill="#ECF144" transform="translate(370,23)"/>
<path d="M0 0 C3 1 3 1 4.38671875 3.28515625 C4.81597656 4.20167969 5.24523437 5.11820312 5.6875 6.0625 C6.34298828 7.44115234 6.34298828 7.44115234 7.01171875 8.84765625 C7.50091797 9.91306641 7.50091797 9.91306641 8 11 C2.74014471 16.08452678 -3.65878892 17.78090419 -10.8125 18.25 C-13.62686659 18.02926537 -16.2587415 17.66454752 -19 17 C-19 16.67 -19 16.34 -19 16 C-12.73 15.67 -6.46 15.34 0 15 C0 14.34 0 13.68 0 13 C1.32 13 2.64 13 4 13 C4 10.69 4 8.38 4 6 C3.34 6 2.68 6 2 6 C2 4.68 2 3.36 2 2 C1.01 1.67 0.02 1.34 -1 1 C-0.67 0.67 -0.34 0.34 0 0 Z " fill="#E9F04A" transform="translate(305,77)"/>
<path d="M0 0 C1.39456452 0.00667256 2.78911118 0.01863093 4.18359375 0.03515625 C4.89451172 0.03966797 5.60542969 0.04417969 6.33789062 0.04882812 C8.09899388 0.06064761 9.86005411 0.07858362 11.62109375 0.09765625 C11.29109375 0.75765625 10.96109375 1.41765625 10.62109375 2.09765625 C6.33109375 2.09765625 2.04109375 2.09765625 -2.37890625 2.09765625 C-2.70890625 13.64765625 -3.03890625 25.19765625 -3.37890625 37.09765625 C-3.70890625 37.09765625 -4.03890625 37.09765625 -4.37890625 37.09765625 C-4.40355635 31.98901729 -4.42174232 26.88041266 -4.43383789 21.77172852 C-4.43887829 20.03246457 -4.44571055 18.29320489 -4.4543457 16.55395508 C-4.46642417 14.05939688 -4.47213733 11.56489452 -4.4765625 9.0703125 C-4.48172379 8.28801773 -4.48688507 7.50572296 -4.49220276 6.69972229 C-4.49239851 4.83198511 -4.44090319 2.96436421 -4.37890625 1.09765625 C-3.37890625 0.09765625 -3.37890625 0.09765625 0 0 Z " fill="#E4ED53" transform="translate(413.37890625,22.90234375)"/>
<path d="M0 0 C0.99 0 1.98 0 3 0 C3 0.99 3 1.98 3 3 C3.99 3.33 4.98 3.66 6 4 C4.68 4.33 3.36 4.66 2 5 C1.67 16.88 1.34 28.76 1 41 C0.67 41 0.34 41 0 41 C-0.144375 40.071875 -0.28875 39.14375 -0.4375 38.1875 C-0.92100111 34.99274889 -0.92100111 34.99274889 -2 32 C-1.505 30.515 -1.505 30.515 -1 29 C-0.84890907 26.79040747 -0.75126199 24.57699953 -0.68359375 22.36328125 C-0.62075195 20.41518555 -0.62075195 20.41518555 -0.55664062 18.42773438 C-0.51683013 17.05599239 -0.47711784 15.68424756 -0.4375 14.3125 C-0.39429165 12.92902355 -0.35067661 11.54555973 -0.30664062 10.16210938 C-0.20041972 6.77484281 -0.09837642 3.38750201 0 0 Z " fill="#FAF712" transform="translate(167,25)"/>
<path d="M0 0 C0.66 0 1.32 0 2 0 C2.33 0.66 2.66 1.32 3 2 C4.87444661 2.66757119 6.77597931 3.25996942 8.6875 3.8125 C13.89481454 5.45724178 17.15893497 7.15893497 21 11 C17.88531795 11 15.06512217 10.52172292 12 10 C11.34 10 10.68 10 10 10 C10 8.68 10 7.36 10 6 C6.37 5.67 2.74 5.34 -1 5 C-1 1 -1 1 0 0 Z " fill="#EBEC32" transform="translate(502,56)"/>
<path d="M0 0 C-0.70554068 3.66881155 -2.27735506 6.70450534 -4 10 C-5 7 -5 7 -5 3 C-10.94 2.01 -10.94 2.01 -17 1 C-17.33 1.99 -17.66 2.98 -18 4 C-18.33 3.34 -18.66 2.68 -19 2 C-18.67 1.34 -18.34 0.68 -18 0 C-15.50955277 -0.34176782 -13.12749979 -0.55958412 -10.625 -0.6875 C-9.59632813 -0.75807617 -9.59632813 -0.75807617 -8.546875 -0.83007812 C-5.36067167 -1.01914272 -3.05659185 -1.01886395 0 0 Z " fill="#EDEA2E" transform="translate(362,42)"/>
<path d="M0 0 C0.66 0.66 1.32 1.32 2 2 C1.625 4.625 1.625 4.625 1 7 C-0.62414378 7.19477739 -2.24936423 7.38059458 -3.875 7.5625 C-4.77992188 7.66691406 -5.68484375 7.77132812 -6.6171875 7.87890625 C-9 8 -9 8 -11 7 C-11.33 7.66 -11.66 8.32 -12 9 C-12.25 3.375 -12.25 3.375 -10 0 C-6.25976024 -1.24674659 -3.83399823 -0.76679965 0 0 Z M-10 2 C-10.33 3.32 -10.66 4.64 -11 6 C-5.06 5.505 -5.06 5.505 1 5 C-0.48925419 0.88036585 -0.48925419 0.88036585 -3.375 0.125 C-6.33935049 -0.01615955 -7.63135607 0.22351705 -10 2 Z " fill="#E8E72C" transform="translate(463,55)"/>
<path d="M0 0 C1.00289062 0.10183594 2.00578125 0.20367187 3.0390625 0.30859375 C3.80992187 0.39238281 4.58078125 0.47617187 5.375 0.5625 C3.28084815 1.6577677 1.58943933 2.52465777 -0.75 2.9375 C-2.83559622 3.40790342 -2.83559622 3.40790342 -3.875 5.625 C-4.1225 6.264375 -4.37 6.90375 -4.625 7.5625 C-6.275 7.2325 -7.925 6.9025 -9.625 6.5625 C-9.02316251 4.54204558 -8.35193904 2.54138961 -7.625 0.5625 C-4.89657939 -0.80171031 -3.01546682 -0.31557211 0 0 Z " fill="#F5F322" transform="translate(252.625,41.4375)"/>
<path d="M0 0 C0.33 0 0.66 0 1 0 C1.19390729 2.31197155 1.37996367 4.6246029 1.5625 6.9375 C1.66691406 8.22527344 1.77132813 9.51304688 1.87890625 10.83984375 C1.91886719 11.88269531 1.95882813 12.92554687 2 14 C1 15 1 15 -2.37890625 15.09765625 C-3.77347077 15.09098369 -5.16801743 15.07902532 -6.5625 15.0625 C-7.62887695 15.05573242 -7.62887695 15.05573242 -8.71679688 15.04882812 C-10.47790013 15.03700864 -12.23896036 15.01907263 -14 15 C-14 14.01 -14 13.02 -14 12 C-13.67 12.66 -13.34 13.32 -13 14 C-9.04 14 -5.08 14 -1 14 C-1.01160156 13.07316406 -1.02320313 12.14632812 -1.03515625 11.19140625 C-1.04417969 9.99386719 -1.05320312 8.79632813 -1.0625 7.5625 C-1.07410156 6.36753906 -1.08570313 5.17257813 -1.09765625 3.94140625 C-1 1 -1 1 0 0 Z " fill="#E8EE3E" transform="translate(332,79)"/>
<path d="M0 0 C2.97 0.495 2.97 0.495 6 1 C6.33 1.99 6.66 2.98 7 4 C4.17999358 9.34374757 0.17833453 13.0409517 -5 16 C-5.66 15.67 -6.32 15.34 -7 15 C-5.515 14.1028125 -5.515 14.1028125 -4 13.1875 C-3.01 12.465625 -2.02 11.74375 -1 11 C-1 10.01 -1 9.02 -1 8 C0.32 8 1.64 8 3 8 C2.7215625 7.0409375 2.7215625 7.0409375 2.4375 6.0625 C2.293125 5.381875 2.14875 4.70125 2 4 C2.33 3.67 2.66 3.34 3 3 C2.01 2.01 1.02 1.02 0 0 Z " fill="#E7EA3D" transform="translate(473,77)"/>
<path d="M0 0 C0.12375 0.639375 0.2475 1.27875 0.375 1.9375 C0.58125 2.618125 0.7875 3.29875 1 4 C1.66 4.33 2.32 4.66 3 5 C3 6.65 3 8.3 3 10 C-0.63 10 -4.26 10 -8 10 C-6.68 9.67 -5.36 9.34 -4 9 C-3.814375 8.0409375 -3.814375 8.0409375 -3.625 7.0625 C-3.41875 6.381875 -3.2125 5.70125 -3 5 C-2.34 4.67 -1.68 4.34 -1 4 C-0.34786708 1.97536745 -0.34786708 1.97536745 0 0 Z " fill="#F8F615" transform="translate(260,28)"/>
<path d="M0 0 C0.33 0 0.66 0 1 0 C1 4.29 1 8.58 1 13 C3.97 13 6.94 13 10 13 C10 13.99 10 14.98 10 16 C6.7 16 3.4 16 0 16 C0 10.72 0 5.44 0 0 Z " fill="#FAF915" transform="translate(248,77)"/>
<path d="M0 0 C0.33 0.66 0.66 1.32 1 2 C1.66 2 2.32 2 3 2 C2.67 3.32 2.34 4.64 2 6 C2.99 6 3.98 6 5 6 C5.5345256 7.24420647 6.05208611 8.49570936 6.5625 9.75 C6.85253906 10.44609375 7.14257812 11.1421875 7.44140625 11.859375 C8.07831803 14.30012784 7.80248831 15.6403655 7 18 C5.99193149 16.40089132 4.99379615 14.79551738 4 13.1875 C3.443125 12.29417969 2.88625 11.40085937 2.3125 10.48046875 C1 8 1 8 1 5 C0.34 4.67 -0.32 4.34 -1 4 C-0.67 2.68 -0.34 1.36 0 0 Z " fill="#F1F228" transform="translate(389,52)"/>
<path d="M0 0 C2.74352701 2.52268582 4.74960666 5.34105929 6.8125 8.4375 C7.45832031 9.38496094 8.10414063 10.33242188 8.76953125 11.30859375 C10 14 10 14 9.19921875 16.34765625 C8.80347656 16.89292969 8.40773438 17.43820313 8 18 C7 17 7 17 6.9375 14.4375 C6.958125 13.633125 6.97875 12.82875 7 12 C4.525 11.01 4.525 11.01 2 10 C2.33 8.68 2.66 7.36 3 6 C2.34 6 1.68 6 1 6 C0.67 4.02 0.34 2.04 0 0 Z " fill="#EEF032" transform="translate(398,43)"/>
<path d="M0 0 C0.33 0.66 0.66 1.32 1 2 C0.67 2.66 0.34 3.32 0 4 C-0.0969632 5.95637514 -0.12978917 7.91622931 -0.125 9.875 C-0.12757813 10.92429687 -0.13015625 11.97359375 -0.1328125 13.0546875 C-0.01998664 15.55676685 0.27491238 17.61756923 1 20 C-0.9375 19.1875 -0.9375 19.1875 -3 18 C-4.16896929 14.49309214 -3.80371005 12.6174633 -3.1875 9 C-3.01605469 7.948125 -2.84460938 6.89625 -2.66796875 5.8125 C-2 3 -2 3 0 0 Z " fill="#E5E42C" transform="translate(287,58)"/>
<path d="M0 0 C0.99 0 1.98 0 3 0 C3.33773438 0.71027344 3.67546875 1.42054687 4.0234375 2.15234375 C4.46945312 3.07144531 4.91546875 3.99054688 5.375 4.9375 C5.81585938 5.85402344 6.25671875 6.77054687 6.7109375 7.71484375 C7.79199162 10.12903802 7.79199162 10.12903802 10 11 C10 12.65 10 14.3 10 16 C7.21234235 13.4696646 5.32536505 10.60660199 3.3125 7.4375 C2.68988281 6.46683594 2.06726563 5.49617188 1.42578125 4.49609375 C0 2 0 2 0 0 Z " fill="#EBF036" transform="translate(401,76)"/>
<path d="M0 0 C0.625 1.75 0.625 1.75 1 4 C0.67515625 4.61488281 0.3503125 5.22976562 0.015625 5.86328125 C-1.73053654 9.53693649 -0.98016237 13.14789335 0 17 C1.88246031 20.00614409 1.88246031 20.00614409 4 22 C1.41515408 21.0195412 0.05156969 20.06077857 -1.75 17.9375 C-3.47569296 13.88212155 -3.59494128 10.34764781 -3 6 C-1.5 2.4375 -1.5 2.4375 0 0 Z " fill="#E6EB4C" transform="translate(490,48)"/>
<path d="M0 0 C2.99075923 0.45032709 5.98675988 0.74554861 9 1 C9 1.33 9 1.66 9 2 C2.94294897 3.10128201 -2.13484056 3.08079308 -8 1 C-8.66 0.34 -9.32 -0.32 -10 -1 C-6.11876362 -2.49278322 -3.82868532 -1.30030822 0 0 Z " fill="#EDF233" transform="translate(456,92)"/>
<path d="M0 0 C0 3 0 3 -1.16015625 5.17578125 C-3 7 -3 7 -5.55859375 7.35546875 C-6.50863281 7.30003906 -7.45867187 7.24460937 -8.4375 7.1875 C-11.8770759 7.01435128 -14.69519918 6.97652741 -18 8 C-18 7.01 -18 6.02 -18 5 C-13.05 5 -8.1 5 -3 5 C-2.34 3.68 -1.68 2.36 -1 1 C-0.67 0.67 -0.34 0.34 0 0 Z " fill="#EAEC43" transform="translate(306,50)"/>
<path d="M0 0 C2.33944736 0.28730055 4.6739143 0.61936779 7 1 C0.82777341 4.54975473 -7.19315506 4.65571904 -14 3 C-14 2.67 -14 2.34 -14 2 C-13.07316406 1.93941406 -12.14632813 1.87882812 -11.19140625 1.81640625 C-9.39509766 1.69072266 -9.39509766 1.69072266 -7.5625 1.5625 C-5.77005859 1.44068359 -5.77005859 1.44068359 -3.94140625 1.31640625 C-1.11429756 1.32343886 -1.11429756 1.32343886 0 0 Z " fill="#EDF243" transform="translate(507,91)"/>
<path d="M0 0 C0.99 1.32 1.98 2.64 3 4 C2.67 4.66 2.34 5.32 2 6 C-3.61 6 -9.22 6 -15 6 C-15.33 4.68 -15.66 3.36 -16 2 C-15.01 2.495 -15.01 2.495 -14 3 C-14 3.66 -14 4.32 -14 5 C-12.04081032 4.94008594 -10.08248471 4.85132862 -8.125 4.75 C-7.03445313 4.70359375 -5.94390625 4.6571875 -4.8203125 4.609375 C-1.8667935 4.31153872 -1.8667935 4.31153872 -0.6171875 1.953125 C-0.41351563 1.30859375 -0.20984375 0.6640625 0 0 Z " fill="#E8E836" transform="translate(361,88)"/>
<path d="M0 0 C3 1 3 1 4.38671875 3.28515625 C4.81597656 4.20167969 5.24523437 5.11820312 5.6875 6.0625 C6.34298828 7.44115234 6.34298828 7.44115234 7.01171875 8.84765625 C7.33785156 9.55792969 7.66398437 10.26820312 8 11 C6.02 11.99 6.02 11.99 4 13 C4 10.69 4 8.38 4 6 C3.34 6 2.68 6 2 6 C2 4.68 2 3.36 2 2 C1.01 1.67 0.02 1.34 -1 1 C-0.67 0.67 -0.34 0.34 0 0 Z " fill="#E8EA40" transform="translate(305,77)"/>
<path d="M0 0 C0.33 0.66 0.66 1.32 1 2 C-0.41079955 4.81706277 -2.03387303 7.47341442 -3.65234375 10.17578125 C-5.04589215 13.09617399 -5.28415444 14.81631042 -5 18 C-5.66 17.67 -6.32 17.34 -7 17 C-6.94008594 15.04081032 -6.85132862 13.08248471 -6.75 11.125 C-6.68039062 9.48917969 -6.68039062 9.48917969 -6.609375 7.8203125 C-6.40828125 6.88960937 -6.2071875 5.95890625 -6 5 C-4.078125 3.8046875 -4.078125 3.8046875 -2 3 C-1.34 2.01 -0.68 1.02 0 0 Z " fill="#E6E73B" transform="translate(356,52)"/>
<path d="M0 0 C0.33 0.66 0.66 1.32 1 2 C0.70351563 2.85851563 0.40703125 3.71703125 0.1015625 4.6015625 C-1.19333282 8.5964523 -1.44412199 12.20726924 -1.625 16.375 C-1.66367187 17.11105469 -1.70234375 17.84710938 -1.7421875 18.60546875 C-1.83557998 20.40327406 -1.9188371 22.20160108 -2 24 C-2.33 24 -2.66 24 -3 24 C-3.08138426 21.12442297 -3.14067851 18.25117738 -3.1875 15.375 C-3.21263672 14.56675781 -3.23777344 13.75851563 -3.26367188 12.92578125 C-3.32589961 7.82310684 -2.75491551 4.46860312 0 0 Z " fill="#E9EB3F" transform="translate(273,53)"/>
<path d="M0 0 C5.28 0 10.56 0 16 0 C15.01 1.485 15.01 1.485 14 3 C9.05 2.67 4.1 2.34 -1 2 C-0.67 1.34 -0.34 0.68 0 0 Z " fill="#E8E836" transform="translate(505,54)"/>
<path d="M0 0 C0.66 0.66 1.32 1.32 2 2 C1.625 4.125 1.625 4.125 1 6 C-0.65 6.33 -2.3 6.66 -4 7 C-3.67 5.02 -3.34 3.04 -3 1 C-2.01 0.67 -1.02 0.34 0 0 Z " fill="#F9F70F" transform="translate(245,47)"/>
<path d="M0 0 C1.32 0 2.64 0 4 0 C4 0.66 4 1.32 4 2 C7.63 2 11.26 2 15 2 C15.33 2.66 15.66 3.32 16 4 C13.89611431 4.05402274 11.79183286 4.09280256 9.6875 4.125 C7.92986328 4.15980469 7.92986328 4.15980469 6.13671875 4.1953125 C3 4 3 4 0 2 C0 1.34 0 0.68 0 0 Z " fill="#F7F526" transform="translate(280,89)"/>
<path d="M0 0 C1.32 0 2.64 0 4 0 C4.1799928 5.21979128 3.97094808 9.07262981 2 14 C1.67 14 1.34 14 1 14 C0.94583812 12.39620659 0.90713362 10.79188594 0.875 9.1875 C0.85179687 8.29417969 0.82859375 7.40085937 0.8046875 6.48046875 C1 4 1 4 3 1 C2.01 0.67 1.02 0.34 0 0 Z " fill="#F0F02D" transform="translate(202,24)"/>
<path d="M0 0 C0.66 0 1.32 0 2 0 C2.33 0.66 2.66 1.32 3 2 C3.99 2.33 4.98 2.66 6 3 C6 3.66 6 4.32 6 5 C3.69 5 1.38 5 -1 5 C-1 1 -1 1 0 0 Z " fill="#EDF321" transform="translate(502,56)"/>
<path d="M0 0 C1.9375 0.375 1.9375 0.375 4 1 C5.33332095 3.6666419 4.67102033 5.16680303 4 8 C3.67 8 3.34 8 3 8 C3 6.35 3 4.7 3 3 C-0.63 3 -4.26 3 -8 3 C-8 2.67 -8 2.34 -8 2 C-5.36 2 -2.72 2 0 2 C0 1.34 0 0.68 0 0 Z " fill="#E6EC37" transform="translate(258,24)"/>
<path d="M0 0 C0.33 1.32 0.66 2.64 1 4 C2.65 4.33 4.3 4.66 6 5 C6 5.66 6 6.32 6 7 C3.36 7 0.72 7 -2 7 C-1.125 2.25 -1.125 2.25 0 0 Z " fill="#E7ED44" transform="translate(366,30)"/>
<path d="M0 0 C3.33333333 0.66666667 6.66666667 1.33333333 10 2 C11.40185547 2.28037109 11.40185547 2.28037109 12.83203125 2.56640625 C13.54746094 2.70949219 14.26289063 2.85257812 15 3 C15 3.33 15 3.66 15 4 C4.84682713 4.63019694 4.84682713 4.63019694 1.3125 2 C0.879375 1.34 0.44625 0.68 0 0 Z " fill="#F0F42D" transform="translate(218,89)"/>
<path d="M0 0 C1.86323318 0.25288812 3.71708432 0.57690153 5.5625 0.9375 C6.57441406 1.13214844 7.58632813 1.32679687 8.62890625 1.52734375 C9.80259766 1.76130859 9.80259766 1.76130859 11 2 C11 2.33 11 2.66 11 3 C7.04 3 3.08 3 -1 3 C-1.33 3.99 -1.66 4.98 -2 6 C-1.125 1.125 -1.125 1.125 0 0 Z " fill="#E3EE47" transform="translate(490,78)"/>
<path d="M0 0 C0.66 0 1.32 0 2 0 C2.33 2.64 2.66 5.28 3 8 C2.01 8 1.02 8 0 8 C-0.66 6.02 -1.32 4.04 -2 2 C-1.34 1.34 -0.68 0.68 0 0 Z " fill="#F5F223" transform="translate(331,70)"/>
<path d="M0 0 C0.66 0 1.32 0 2 0 C2 1.32 2 2.64 2 4 C2.66 4.33 3.32 4.66 4 5 C4 5.66 4 6.32 4 7 C2.02 7 0.04 7 -2 7 C-1.34 4.69 -0.68 2.38 0 0 Z " fill="#F4F620" transform="translate(315,27)"/>
<path d="M0 0 C1.32 0.33 2.64 0.66 4 1 C4 3.31 4 5.62 4 8 C2 6.25 2 6.25 0 4 C0 2.68 0 1.36 0 0 Z " fill="#F2F325" transform="translate(439,81)"/>
<path d="M0 0 C0.185625 0.9590625 0.185625 0.9590625 0.375 1.9375 C0.684375 2.9584375 0.684375 2.9584375 1 4 C1.66 4.33 2.32 4.66 3 5 C3 5.66 3 6.32 3 7 C1.35 7 -0.3 7 -2 7 C-2.33 6.34 -2.66 5.68 -3 5 C-1.5625 2.375 -1.5625 2.375 0 0 Z " fill="#E9F03D" transform="translate(313,31)"/>
<path d="M0 0 C3.0916909 2.52956528 3.90931332 5.22454612 5 9 C4.34 9 3.68 9 3 9 C0.56839395 5.63316085 0 4.26649636 0 0 Z " fill="#E3E937" transform="translate(353,74)"/>
<path d="M0 0 C0.99 0 1.98 0 3 0 C2.34 4.29 1.68 8.58 1 13 C0.67 13 0.34 13 0 13 C0 8.71 0 4.42 0 0 Z " fill="#E5E920" transform="translate(181,37)"/>
<path d="M0 0 C3.63 0.33 7.26 0.66 11 1 C8.07735566 2.46132217 6.07536854 3.34099246 3 4 C2.67 3.01 2.34 2.02 2 1 C1.34 0.67 0.68 0.34 0 0 Z " fill="#F0E931" transform="translate(247,41)"/>
</svg>
